<?xml version="1.0" encoding="UTF-8"?>
<svg xmlns="http://www.w3.org/2000/svg" xmlns:xlink="http://www.w3.org/1999/xlink" viewBox="0 0 48 48" width="48px" height="48px">
<g id="surface29915063">
<path style=" stroke:none;fill-rule:nonzero;fill:rgb(11.764706%,53.333336%,89.803922%);fill-opacity:1;" d="M 38.589844 39 C 38.054688 39.929688 38.292969 40.679688 37.394531 41.195312 C 36.496094 41.714844 35.464844 42 34.390625 42 L 13.609375 42 C 12.535156 42 11.503906 41.714844 10.605469 41.199219 C 9.707031 40.679688 9.945312 39.929688 9.410156 39 L 17.078125 30 L 30.921875 30 Z M 38.589844 39 "/>
<path style=" stroke:none;fill-rule:nonzero;fill:rgb(98.431373%,75.294119%,17.647059%);fill-opacity:1;" d="M 27.464844 7 C 28.535156 6.996094 29.566406 6.28125 30.464844 6.800781 C 31.359375 7.320312 32.125 8.070312 32.660156 9.003906 L 43.050781 26.996094 C 43.589844 27.929688 43.859375 28.964844 43.859375 30 C 43.859375 31.035156 42.59375 32.074219 42.054688 33 L 30.925781 29.996094 L 24.003906 18.003906 Z M 27.464844 7 "/>
<path style=" stroke:none;fill-rule:nonzero;fill:rgb(89.803922%,22.352941%,20.784314%);fill-opacity:1;" d="M 43.859375 30 C 43.859375 31.039062 43.589844 32.070312 43.050781 33 L 39.378906 39.351562 C 38.851562 40.128906 38.171875 40.75 37.390625 41.199219 L 30.921875 30 Z M 43.859375 30 "/>
<path style=" stroke:none;fill-rule:nonzero;fill:rgb(29.803923%,68.627453%,31.37255%);fill-opacity:1;" d="M 5.945312 33 C 5.410156 32.074219 4.140625 31.035156 4.140625 30 C 4.140625 28.964844 4.410156 27.929688 4.949219 26.996094 L 15.339844 9 C 15.875 8.070312 16.640625 7.320312 17.535156 6.800781 C 18.433594 6.28125 19.464844 6.996094 20.535156 6.996094 L 23.996094 18.007812 L 17.074219 29.996094 Z M 5.945312 33 "/>
<path style=" stroke:none;fill-rule:nonzero;fill:rgb(8.235294%,39.607844%,75.294119%);fill-opacity:1;" d="M 17.078125 30 L 10.609375 41.199219 C 9.828125 40.75 9.148438 40.128906 8.621094 39.351562 L 4.949219 33 C 4.410156 32.070312 4.140625 31.039062 4.140625 30 Z M 17.078125 30 "/>
<path style=" stroke:none;fill-rule:nonzero;fill:rgb(18.039216%,49.019608%,19.607843%);fill-opacity:1;" d="M 30.460938 6.800781 L 24 18 L 17.53125 6.800781 C 18.308594 6.351562 19.191406 6.070312 20.128906 6.011719 L 27.460938 6 C 28.539062 6 29.570312 6.28125 30.460938 6.800781 Z M 30.460938 6.800781 "/>
</g>
</svg>
