<svg width="122.88" height="92.12" xmlns="http://www.w3.org/2000/svg" xml:space="preserve" version="1.1">

 <g>
  <title>Layer 1</title>
  <g id="svg_1">
   <path id="svg_2" fill="#4285F4" d="m8.36,92.12l19.54,0l0,-47.45l-27.9,-20.91l0,60.08c0,4.58 3.78,8.28 8.36,8.28l0,0z" class="st4"/>
   <path id="svg_3" fill="#34A853" d="m94.97,92.12l19.54,0c4.67,0 8.36,-3.78 8.36,-8.36l0,-60l-27.9,20.91l0,47.45l0,0z" class="st3"/>
   <path id="svg_4" fill="#FBBC04" d="m94.97,8.4l0,36.27l27.91,-20.91l0,-11.18c0,-10.37 -11.82,-16.25 -20.11,-10.05l-7.8,5.87l0,0z" class="st2"/>
   <polygon id="svg_5" fill="#EA4335" points="27.9,44.67 27.9,8.4 61.44,33.57 94.97,8.4 94.97,44.67 61.44,69.76 27.9,44.67" class="st0"/>
   <path id="svg_6" fill="#C5221F" d="m0,12.58l0,11.18l27.91,20.91l0,-36.27l-7.8,-5.87c-8.29,-6.19 -20.11,-0.24 -20.11,10.05l0,0z" class="st1"/>
  </g>
 </g>
</svg>